<svg width="256" height="256" viewBox="0 0 256 256" fill="none" xmlns="http://www.w3.org/2000/svg">
<rect width="256" height="256" fill="black"/>
<path fill-rule="evenodd" clip-rule="evenodd" d="M128.394 52C170.585 52 204.787 86.2027 204.787 128.394C204.787 170.585 170.585 204.787 128.394 204.787C86.2026 204.787 52 170.585 52 128.394C52 86.2027 86.2026 52 128.394 52ZM128.394 128.394C128.394 156.521 139.795 179.323 153.858 179.323C167.922 179.323 179.323 156.521 179.323 128.394H128.394ZM102.929 77.4646C88.8654 77.4646 77.4646 100.266 77.4646 128.394H128.394C128.394 100.266 116.993 77.4646 102.929 77.4646Z" fill="white"/>
</svg>
